# xmcd CD database file
#
# Track frame offsets:
#	150
#	19723
#	40121
#	79944
#	96927
#	124515
#	144570
#	170681
#	193521
#	216344
#	252195
#	276518
#	306856
#
# Disc length: 4182 seconds
#
# Revision: 1
# Processed by: cddbd v1.4PL0 Copyright (c) Steve Scherf et al.
# Submitted via: Feurio! 1.63 - http://www.feurio.com
#
DISCID=ba10540d
DTITLE=Ronnie Earl - Ronnie Earl and Friends
DYEAR=1900
DGENRE=
TTITLE0=All your Love
TTITLE1=Rock me Baby
TTITLE2=I`ll take care of you
TTITLE3=Mighty Fine Boogie
TTITLE4=One more Mile
TTITLE5=Bad Boy
TTITLE6=Twenty-Five Days
TTITLE7=No more
TTITLE8=Last Night
TTITLE9=New Vietnam Blues
TTITLE10=Marie
TTITLE11=Blue and Lonesome
TTITLE12=Looking good
EXTD=
EXTT0=
EXTT1=
EXTT2=
EXTT3=
EXTT4=
EXTT5=
EXTT6=
EXTT7=
EXTT8=
EXTT9=
EXTT10=
EXTT11=
EXTT12=
PLAYORDER=
